<svg xmlns="http://www.w3.org/2000/svg" viewBox="0 0 1400 760" role="img" aria-labelledby="t d"><title id="t">Architecture Mapping</title><desc id="d">Current architecture baseline compared with a proposed change highlighted in green, followed by human approval and AI planning.</desc><defs><marker id="a" viewBox="0 0 10 10" refX="9" refY="5" markerWidth="7" markerHeight="7" orient="auto"><path d="M0 0L10 5L0 10Z" fill="#344054"/></marker><style>.title{font:700 40px Arial;fill:#101828}.head{font:700 27px Arial;fill:#fff}.box{fill:#fff;stroke:#344054;stroke-width:3}.new{fill:#edf9ee;stroke:#2e8b3c;stroke-width:4}.txt{font:20px Arial;fill:#101828}.note{font:700 20px Arial}.line{stroke:#344054;stroke-width:3;fill:none;marker-end:url(#a)}.green{stroke:#2e8b3c}</style></defs><rect width="1400" height="760" fill="white"/><text x="700" y="55" text-anchor="middle" class="title">Architecture Mapping</text><g transform="translate(70 100)"><rect width="570" height="500" rx="18" fill="#f8fafc" stroke="#667085" stroke-width="3"/><path d="M0 18Q0 0 18 0H552Q570 0 570 18V75H0Z" fill="#344054"/><text x="285" y="49" text-anchor="middle" class="head">Current baseline</text><rect x="185" y="110" width="200" height="65" rx="10" class="box"/><text x="285" y="150" text-anchor="middle" class="txt">Web UI</text><rect x="185" y="220" width="200" height="65" rx="10" class="box"/><text x="285" y="260" text-anchor="middle" class="txt">Public API</text><rect x="55" y="330" width="200" height="65" rx="10" class="box"/><text x="155" y="370" text-anchor="middle" class="txt">Auth Service</text><rect x="315" y="330" width="200" height="65" rx="10" class="box"/><text x="415" y="370" text-anchor="middle" class="txt">Order Service</text><rect x="315" y="425" width="200" height="55" rx="10" class="box"/><text x="415" y="460" text-anchor="middle" class="txt">Orders DB</text><path class="line" d="M285 175V220M225 285L155 330M345 285L415 330M415 395V425"/></g><g transform="translate(760 100)"><rect width="570" height="500" rx="18" fill="#f8fafc" stroke="#1769d2" stroke-width="3"/><path d="M0 18Q0 0 18 0H552Q570 0 570 18V75H0Z" fill="#1769d2"/><text x="285" y="49" text-anchor="middle" class="head">Proposed change</text><rect x="185" y="110" width="200" height="65" rx="10" class="box"/><text x="285" y="150" text-anchor="middle" class="txt">Web UI</text><rect x="185" y="220" width="200" height="65" rx="10" class="box"/><text x="285" y="260" text-anchor="middle" class="txt">Public API</text><rect x="25" y="330" width="180" height="65" rx="10" class="box"/><text x="115" y="370" text-anchor="middle" class="txt">Auth Service</text><rect x="225" y="330" width="180" height="65" rx="10" class="box"/><text x="315" y="370" text-anchor="middle" class="txt">Order Service</text><rect x="225" y="425" width="180" height="55" rx="10" class="box"/><text x="315" y="460" text-anchor="middle" class="txt">Orders DB</text><rect x="425" y="330" width="125" height="65" rx="10" class="new"/><text x="487" y="358" text-anchor="middle" class="txt"><tspan x="487">Recommendation</tspan><tspan x="487" dy="23">Service</tspan></text><rect x="425" y="425" width="125" height="55" rx="10" class="new"/><text x="487" y="450" text-anchor="middle" class="txt"><tspan x="487">Recommendations</tspan><tspan x="487" dy="20">DB</tspan></text><path class="line" d="M285 175V220M215 285L115 330M285 285L315 330M315 395V425"/><path class="line green" d="M355 285L487 330M487 395V425"/></g><rect x="185" y="645" width="420" height="75" rx="14" fill="#e8f1ff" stroke="#1769d2" stroke-width="3"/><text x="395" y="678" text-anchor="middle" class="note" fill="#0b326d">Human approves architectural direction</text><text x="395" y="705" text-anchor="middle" class="txt">Strategy, security, standards, and risk</text><rect x="795" y="645" width="420" height="75" rx="14" fill="#edf9ee" stroke="#2e8b3c" stroke-width="3"/><text x="1005" y="678" text-anchor="middle" class="note" fill="#174d20">AI plans against the approved artifact</text><text x="1005" y="705" text-anchor="middle" class="txt">Implementation impact and migration path</text></svg>